<?xml version="1.0" encoding="UTF-8" standalone="no"?>
<!-- Created with Inkscape (http://www.inkscape.org/) -->

<svg
   width="1920"
   height="1280"
   viewBox="0 0 1920 1280"
   version="1.1"
   id="svg1"
   xml:space="preserve"
   xmlns="http://www.w3.org/2000/svg"
   xmlns:svg="http://www.w3.org/2000/svg"><defs
     id="defs1" /><g
     id="layer1"
     transform="translate(1236.6692,303.15594)"><path
       style="fill:#000000;stroke-width:2"
       d="m -1187.6829,976.84406 78.9549,-97.8676 76.875,-95.1287 -2.1989,-3.2586 24.8007,-21.0572 4.3674,-0.7799 63.95161,-45.546 1.40382,0.9359 40.39867,-29.01219 4.21145,-6.23917 4.5234,-0.7799 77.67776,-53.34497 2.80763,-7.48701 4.05547,-0.46794 72.99837,-50.69332 4.83537,0.46794 54.12486,-39.15084 1.24784,-6.86309 h 4.21144 l 6.55114,-6.70712 2.80763,-0.62392 21.83712,-16.06588 5.14732,0.31196 278.87958,-200.20127 6.17647,7.27941 -2.64705,2.20588 116.6912,139.63235 233.8235,281.02938 1.7647,9.0442 -3.0882,-2.2059 88.6764,242.5735 h 595.1471 v -1280 h -1920 v 1280 z"
       id="path1" /></g></svg>
