<?xml version="1.0" encoding="UTF-8" standalone="no"?>
<!-- Created with Inkscape (http://www.inkscape.org/) -->

<svg
   version="1.1"
   id="svg1"
   width="1280"
   height="852.99988"
   viewBox="0 0 1280 852.99991"
   xmlns="http://www.w3.org/2000/svg"
   xmlns:svg="http://www.w3.org/2000/svg">
  <defs
     id="defs1" />
  <g
     id="g1">
    <path
       style="fill:#000000;stroke-width:2"
       d="m 28.54311,852.99988 107.7228,-128.58122 0.20584,-4.59709 15.16352,-11.04673 25.11245,-20.1723 6.7241,-0.96058 1.64672,-3.15621 8.64527,-6.03797 3.97957,-1.37226 34.30662,-24.28909 1.78394,-3.70512 4.80293,-1.09781 6.86133,-6.31242 6.99855,-2.47008 27.30807,-18.6628 2.47008,-5.62629 10.01753,-6.17519 13.9971,-9.74308 22.64237,-15.36937 4.80293,-5.35183 3.43066,0.82336 38.69787,-25.79858 1.78395,-5.35183 13.58542,-9.33141 6.31242,-6.03796 4.25402,1.37226 181.95607,-130.67588 6.21016,-3.68728 c 0,0 3.78432,3.29915 3.39619,5.43389 -0.38814,2.13475 -0.48517,3.29915 -0.48517,3.29915 l 231.13447,275.18781 56.66773,169.49391 H 1280 V 0 H 0 v 852.99988 z"
       id="path1" />
  </g>
</svg>
